<?xml version="1.0" encoding="utf-8"?>
<!-- Svg Vector Icons : http://www.onlinewebfonts.com/icon -->
<!DOCTYPE svg PUBLIC "-//W3C//DTD SVG 1.1//EN" "http://www.w3.org/Graphics/SVG/1.1/DTD/svg11.dtd">
<svg version="1.1" xmlns="http://www.w3.org/2000/svg" xmlns:xlink="http://www.w3.org/1999/xlink" x="0px" y="0px" viewBox="0 0 256 256" enable-background="new 0 0 256 256" xml:space="preserve">
<metadata> Svg Vector Icons : http://www.onlinewebfonts.com/icon </metadata>
<g><g><path fill="#000000" d="M104.3,217.8l-60.7,0c-2.6,0-5.5-0.3-7.4-2.7c-1-1.2-1.6-5.1-1.6-7.8V33.3c0.1-0.6,0.6-4.7,2.9-7c3.3-3.4,5.9-3.9,6.3-4h93.9v25.1c0,1.3,0.1,9.8,5,15.5c4.5,5.2,11.7,7.8,12.5,8.1l1,0.4l33.2,0v30c3.5,2.7,7,5.4,10.5,8.1c0.6,0.6,1.2,1.3,1.8,1.9v-54L147.9,10H43.5c-1.2,0-7.6,0.4-14.8,7.6c-5.9,5.9-6.5,14.3-6.5,15.2v174.3c0,1.8,0.1,10.3,4.2,15.5c2.5,3.2,5.9,5.5,10,6.6c3.1,0.9,5.8,0.9,7.1,0.9l82.8,0c-5.1-1.6-9.9-3.8-14.7-6.5L104.3,217.8L104.3,217.8z M149.9,28.2l35,30.9l-26.7,0c-1.8-0.8-4.8-2.4-6.5-4.3c-1.3-1.5-1.9-5.2-1.9-7.2L149.9,28.2L149.9,28.2z"/><path fill="#000000" d="M230.9,229.3l-30.2-30.2c7.9-10.7,12.5-23.9,12.5-38.1c0-35.5-28.9-64.4-64.4-64.4c-35.5,0-64.4,28.9-64.4,64.4c0,35.5,28.9,64.4,64.4,64.4c14.2,0,27.4-4.6,38.1-12.5l30.2,30.2c1.9,1.9,4.4,2.8,6.9,2.8c2.5,0,5-1,6.9-2.8C234.7,239.3,234.7,233.1,230.9,229.3L230.9,229.3z M148.8,209.5c-26.8,0-48.6-21.8-48.6-48.6s21.8-48.6,48.6-48.6c26.8,0,48.6,21.8,48.6,48.6S175.6,209.5,148.8,209.5L148.8,209.5z"/></g></g>
</svg>